<?xml version="1.0"?>
<svg width="171" height="147" xmlns="http://www.w3.org/2000/svg" xmlns:svg="http://www.w3.org/2000/svg" preserveAspectRatio="xMidYMid meet" version="1.0">

 <g class="layer">
  <title>Layer 1</title>
  <g fill="#000000" id="svg_1" transform="matrix(0.1, 0, 0, -0.1, 0, 0)">
   <path d="m887,-128c-27,-30 -23,-125 8,-179c21,-35 31,-43 55,-43c25,0 31,5 41,40c16,52 -2,137 -36,174c-28,31 -46,33 -68,8z" fill="#ff0000" id="svg_2"/>
   <path d="m686,-192c-32,-45 -12,-164 32,-199c30,-23 36,-23 56,-3c19,19 22,110 4,151c-15,36 -48,73 -64,73c-7,0 -20,-10 -28,-22z" fill="#ff0000" id="svg_3"/>
   <path d="m945,-417c-245,-38 -544,-180 -692,-328c-73,-73 -102,-130 -103,-197c0,-40 5,-52 33,-81c51,-51 187,-87 328,-87c135,0 352,51 470,110c71,36 123,93 115,126c-8,29 5,31 27,6c25,-28 21,-48 -20,-93c-25,-27 -70,-57 -140,-91c-57,-28 -101,-54 -96,-58c21,-20 125,-32 313,-37c236,-6 280,3 331,67c70,86 52,326 -35,475c-35,59 -118,132 -184,163c-51,24 -70,26 -187,28c-71,1 -143,0 -160,-3z" fill="#ff0000" id="svg_4"/>
   <path d="m495,-1178c-44,-27 -95,-89 -95,-116l0,-24l363,-7c199,-4 389,-5 422,-3c53,3 60,6 63,25c4,27 -58,71 -148,104c-85,32 -218,34 -272,5l-36,-19l-71,26c-88,33 -180,36 -226,9z" fill="#ff0000" id="svg_5"/>
  </g>
 </g>
</svg>