<svg width="420" height="520" xmlns="http://www.w3.org/2000/svg">
 <g>
  <title>Layer 1</title>
  <g id="svg_6">
   <path fill="#b22222" id="svg_5" d="m371.21515,245.80916q8.85981,12.62523 3.98691,28.57289l-60.9112,200.67472q-4.20841,14.1757 -16.94439,23.81074t-27.13317,9.63504l-204.44013,0q-17.05514,0 -32.89205,-11.85t-22.03878,-29.12663q-5.31589,-14.84018 -0.44299,-28.1299q0,-0.88598 0.66449,-5.98037t0.88598,-8.19533q0.2215,-1.77196 -0.66449,-4.76215t-0.66449,-4.31916q0.44299,-2.43645 1.77196,-4.6514t3.65467,-5.20514t3.65467,-5.20514q5.09439,-8.41682 9.96729,-20.26682t6.64486,-20.26682q0.66449,-2.21495 0.11075,-6.64486t-0.11075,-6.20187q0.66449,-2.43645 3.76542,-6.20187t3.76542,-5.09439q4.6514,-7.97383 9.3028,-20.37756t5.53738,-19.93457q0.2215,-1.99346 -0.55374,-7.08785t0.11075,-6.20187q0.88598,-2.87944 4.8729,-6.75561t4.8729,-4.98364q4.20841,-5.75888 9.41355,-18.71635t6.09112,-21.37429q0.2215,-1.77196 -0.66449,-5.64813t-0.44299,-5.86962q0.44299,-1.77196 1.99346,-3.98691t3.98691,-5.09439t3.76542,-4.6514q1.77196,-2.65794 3.65467,-6.75561t3.32243,-7.75233t3.54392,-7.97383t4.31916,-7.08785t5.86962,-5.20514t7.97383,-2.5472t10.52103,1.21822l-0.2215,0.66449q8.41682,-1.99346 11.29626,-1.99346l168.5579,0q16.39065,0 25.25046,12.40374t3.98691,28.79439l-60.6897,200.67472q-7.97383,26.35794 -15.83691,33.99952t-28.46214,7.64159l-192.47939,0q-5.98037,0 -8.41682,3.32243q-2.43645,3.54392 -0.2215,9.5243q5.31589,15.50467 31.89532,15.50467l204.44013,0q6.42336,0 12.40374,-3.43318t7.75233,-9.19205l66.44858,-218.61583q1.55047,-4.8729 1.10748,-12.62523q8.41682,3.32243 13.06822,9.5243zm-235.67097,0.44299q-0.88598,2.87944 0.44299,4.98364t4.42991,2.10421l134.66912,0q2.87944,0 5.64813,-2.10421t3.65467,-4.98364l4.6514,-14.1757q0.88598,-2.87944 -0.44299,-4.98364t-4.42991,-2.10421l-134.66912,0q-2.87944,0 -5.64813,2.10421t-3.65467,4.98364l-4.6514,14.1757zm-18.38411,56.70279q-0.88598,2.87944 0.44299,4.98364t4.42991,2.10421l134.66912,0q2.87944,0 5.64813,-2.10421t3.65467,-4.98364l4.6514,-14.1757q0.88598,-2.87944 -0.44299,-4.98364t-4.42991,-2.10421l-134.66912,0q-2.87944,0 -5.64813,2.10421t-3.65467,4.98364l-4.6514,14.1757z"/>
  </g>
  <g id="svg_21">
   <g transform="matrix(2.83621, 0, 0, 2.83621, -475.3, -490.842)" id="svg_20" class="layer">
    <title>Layer 1</title>
    <g transform="matrix(0.1, 0, 0, -0.1, 0, 0)" id="svg_14" fill="#000000">
     <path id="svg_18" fill="#ff0000" d="m2426.55135,-1760.98174c-27,-30 -23,-125 8,-179c21,-35 31,-43 55,-43c25,0 31,5 41,40c16,52 -2,137 -36,174c-28,31 -46,33 -68,8z"/>
     <path id="svg_17" fill="#ff0000" d="m2225.55135,-1824.98174c-32,-45 -12,-164 32,-199c30,-23 36,-23 56,-3c19,19 22,110 4,151c-15,36 -48,73 -64,73c-7,0 -20,-10 -28,-22z"/>
     <path id="svg_16" fill="#ff0000" d="m2484.55135,-2049.98174c-245,-38 -544,-180 -692,-328c-73,-73 -102,-130 -103,-197c0,-40 5,-52 33,-81c51,-51 187,-87 328,-87c135,0 352,51 470,110c71,36 123,93 115,126c-8,29 5,31 27,6c25,-28 21,-48 -20,-93c-25,-27 -70,-57 -140,-91c-57,-28 -101,-54 -96,-58c21,-20 125,-32 313,-37c236,-6 280,3 331,67c70,86 52,326 -35,475c-35,59 -118,132 -184,163c-51,24 -70,26 -187,28c-71,1 -143,0 -160,-3z"/>
     <path id="svg_15" fill="#ff0000" d="m2034.55135,-2810.98174c-44,-27 -95,-89 -95,-116l0,-24l363,-7c199,-4 389,-5 422,-3c53,3 60,6 63,25c4,27 -58,71 -148,104c-85,32 -218,34 -272,5l-36,-19l-71,26c-88,33 -180,36 -226,9z"/>
    </g>
   </g>
  </g>
 </g>
</svg>